<svg width="1000" height="1000" viewBox="0 0 1000 1000" fill="none" xmlns="http://www.w3.org/2000/svg">
<rect x="367" y="400" width="150" height="200" fill="#EACA7F"/>
<path d="M367.296 590.581C366.009 611.033 368.927 631.531 375.868 650.811C382.809 670.091 393.627 687.744 407.655 702.682C421.682 717.62 438.622 729.525 457.428 737.663C476.234 745.801 496.508 750 517 750L517 600L367.296 590.581Z" fill="#EACA7F"/>
<path d="M516.704 409.419C517.991 388.967 515.073 368.469 508.132 349.189C501.191 329.909 490.373 312.256 476.345 297.318C462.318 282.38 445.378 270.475 426.572 262.337C407.766 254.199 387.492 250 367 250L367 400L516.704 409.419Z" fill="#EACA7F"/>
<rect x="667" y="399" width="150" height="200" fill="#EACA7F"/>
<path d="M667.296 589.581C666.009 610.033 668.927 630.531 675.868 649.811C682.809 669.091 693.627 686.744 707.655 701.682C721.682 716.62 738.622 728.525 757.428 736.663C776.234 744.801 796.508 749 817 749L817 599L667.296 589.581Z" fill="#EACA7F"/>
<path d="M816.704 409.419C817.991 388.967 815.073 368.469 808.132 349.189C801.191 329.909 790.373 312.256 776.345 297.318C762.318 282.38 745.378 270.475 726.572 262.337C707.766 254.199 687.492 250 667 250L667 400L816.704 409.419Z" fill="#EACA7F"/>
<path d="M197 250C197 281.677 207.028 312.541 225.647 338.168C244.267 363.795 270.521 382.87 300.647 392.658L347 250L197 250Z" fill="#EACA7F"/>
<path d="M687 750C687 718.323 676.972 687.459 658.353 661.832C639.733 636.205 613.479 617.13 583.353 607.342L537 750H687Z" fill="#EACA7F"/>
<circle cx="500" cy="500" r="445" stroke="#EACA7F" stroke-width="10"/>
</svg>
